# xmcd
#
# Track frame offsets:
#	150
#	21050
#	43250
#	64270
#	80300
#	100810
#	119210
#	136132
#	152237
#	174642
#
# Disc length: 2543 seconds
#
# Revision: 1
# Processed by: cddbd v1.5PL3 Copyright (c) Steve Scherf et al.
# Submitted via: CDex 1.50Beta5
#
DISCID=8709ed0a
DTITLE=REIMY - PANSY
DYEAR=1989
DGENRE=Pop
TTITLE0=Time Travelers
TTITLE1=真夜中のシンフォニー
TTITLE2=国際線
TTITLE3=すぐそばにいるの
TTITLE4=パンジーとトパーズのネックレス
TTITLE5=花びらの舞う坂道
TTITLE6=ひとちがい
TTITLE7=Ring!
TTITLE8=思い出よりたしかに…
TTITLE9=虹の朝 風の空
EXTD=
EXTT0=
EXTT1=
EXTT2=
EXTT3=
EXTT4=
EXTT5=
EXTT6=
EXTT7=
EXTT8=
EXTT9=
PLAYORDER=
